<?xml version="1.0" encoding="UTF-8"?>
<svg width="53px" height="52px" viewBox="0 0 53 52" version="1.1" xmlns="http://www.w3.org/2000/svg" xmlns:xlink="http://www.w3.org/1999/xlink">
    <title>icon-pop</title>
    <defs>
        <radialGradient cx="50.2399427%" cy="25.8357279%" fx="50.2399427%" fy="25.8357279%" r="65.7445422%" gradientTransform="translate(0.502399,0.258357),scale(0.664023,1.000000),rotate(54.510176),scale(1.000000,0.494719),translate(-0.502399,-0.258357)" id="radialGradient-1">
            <stop stop-color="#CDAE74" offset="0%"></stop>
            <stop stop-color="#946F3B" offset="100%"></stop>
        </radialGradient>
    </defs>
    <g id="casino" stroke="none" stroke-width="1" fill="none" fill-rule="evenodd">
        <g id="casino---VK---table" transform="translate(-307.000000, -65.000000)" fill="url(#radialGradient-1)">
            <g id="nav" transform="translate(0.000000, 39.000000)">
                <g id="egame" transform="translate(307.000000, 5.240000)">
                    <g transform="translate(0.000000, 1.020000)" id="Fill-23">
                        <path d="M38.4859471,43.0550444 C37.7567912,43.0550444 37.1656184,42.4638717 37.1656184,41.7347157 C37.1656184,41.0055598 37.7567912,40.414387 38.4859471,40.414387 C39.2151031,40.414387 39.8062758,41.0055598 39.8062758,41.7347157 C39.8062758,42.4638717 39.2151031,43.0550444 38.4859471,43.0550444 L38.4859471,43.0550444 Z M35.9205533,45.6204382 C35.1910757,45.6204382 34.5995813,45.0292655 34.5995813,44.2997879 C34.5995813,43.5699887 35.1910757,42.9788159 35.9205533,42.9788159 C36.6500309,42.9788159 37.2412036,43.5699887 37.2412036,44.2997879 C37.2412036,45.0292655 36.6500309,45.6204382 35.9205533,45.6204382 L35.9205533,45.6204382 Z M33.3548378,43.0550444 C32.6256819,43.0550444 32.0345091,42.4638717 32.0345091,41.7347157 C32.0345091,41.0055598 32.6256819,40.414387 33.3548378,40.414387 C34.0843154,40.414387 34.6754882,41.0055598 34.6754882,41.7347157 C34.6754882,42.4638717 34.0843154,43.0550444 33.3548378,43.0550444 L33.3548378,43.0550444 Z M17.3841676,38.2018313 C17.8418601,38.2018313 18.2127101,38.5736462 18.2127101,39.0303738 L18.2127101,40.6031892 L19.7861688,40.6031892 C20.2428964,40.6031892 20.6147112,40.9746824 20.6147112,41.43141 L20.6147112,42.0389863 C20.6147112,42.4957139 20.2428964,42.8672071 19.7861688,42.8672071 L18.2127101,42.8672071 L18.2127101,44.4390577 C18.2127101,44.8967502 17.8408952,45.2672785 17.3841676,45.2672785 L16.7778778,45.2672785 C16.3201853,45.2672785 15.9493354,44.8964285 15.9493354,44.4390577 L15.9493354,42.8672071 L14.3755551,42.8672071 C13.9181842,42.8672071 13.5470126,42.4963572 13.5470126,42.0389863 L13.5470126,41.43141 C13.5470126,40.9737175 13.9188275,40.6031892 14.3755551,40.6031892 L15.9493354,40.6031892 L15.9493354,39.0303738 C15.9493354,38.5726813 16.3208286,38.2018313 16.7778778,38.2018313 L17.3841676,38.2018313 Z M35.9215182,37.8467417 C36.6506742,37.8470633 37.2415253,38.4385577 37.2412038,39.1677137 C37.2412038,39.8968696 36.6497092,40.4877207 35.9205533,40.4877207 C35.1910757,40.4877207 34.6002246,39.896548 34.6002246,39.1670704 C34.6002246,38.4379145 35.1910757,37.8467417 35.9205533,37.8467417 Z M34.501803,35.0928673 C38.1707408,34.480788 41.6412272,36.958696 42.2536281,40.6276338 L44.0001287,53.5488432 C44.0001287,55.1116878 43.2214403,56.5719295 41.923948,57.44325 C39.7725037,58.8883747 36.8568448,58.3155354 35.4117202,56.1640911 L32.8064431,51.9084836 C33.4609787,51.9084836 34.1000757,51.7100322 34.6394646,51.3391823 C36.1128935,50.3266622 36.4866382,48.3112713 35.4741182,46.8375208 C34.4615981,45.3640918 32.4458856,44.9903472 30.9724567,46.0028672 C29.2056928,46.0054403 27.7663576,47.4219391 27.7361236,49.1883813 L25.2652916,49.1883813 C25.2344143,47.4225824 23.7954007,46.0064052 22.0289586,46.0038321 C21.2975511,46.0044754 20.6250037,46.2502077 20.0827201,46.6596543 L20.086,46.656 C18.366265,46.656327 16.9584432,48.0060121 16.8634018,49.7066852 L16.8582876,49.8901979 C16.8582876,51.4691245 17.9891709,52.7823771 19.4847929,53.0679927 L17.5884085,56.1640911 C16.7174097,57.4612618 15.2574896,58.2396285 13.6949666,58.2402718 C11.1031984,58.2415584 9.00128656,56.1415764 9,53.5498081 L10.7477871,40.6324584 C10.9841919,39.211135 11.6670318,37.9072099 12.6969204,36.9062688 C15.3642738,34.3138573 19.628244,34.3746471 22.2206555,37.0420006 L30.7807597,37.0420006 C31.7817008,36.012112 33.0853042,35.3292721 34.501803,35.0928673 Z M30.9738397,46.7428299 C32.3527067,46.7437951 33.4700811,47.8621344 33.4694381,49.2413231 C33.4687946,50.6230849 32.3501336,51.7404593 30.970945,51.7398163 C29.5920779,51.7388511 28.4747035,50.6205118 28.4753465,49.2413231 C28.4763117,47.8595613 29.594651,46.7421869 30.9738397,46.7428299 Z M22.0291194,46.7441811 C23.408308,46.7441811 24.5260041,47.8621988 24.5260041,49.2413874 C24.5260041,50.6202545 23.4079864,51.7382721 22.0291194,51.7382721 C20.6499307,51.7382721 19.531913,50.6202545 19.531913,49.2413874 L19.5372247,49.0768731 C19.6217723,47.7742498 20.7050983,46.7441811 22.0291194,46.7441811 Z"></path>
                    </g>
                </g>
            </g>
        </g>
    </g>
</svg>