<?xml version="1.0" encoding="UTF-8"?>
<svg width="53px" height="52px" viewBox="0 0 53 52" version="1.1" xmlns="http://www.w3.org/2000/svg" xmlns:xlink="http://www.w3.org/1999/xlink">
    <title>hover-egame</title>
    <defs>
        <linearGradient x1="72.1879135%" y1="19.0201195%" x2="21.2411557%" y2="80.8240839%" id="linearGradient-1">
            <stop stop-color="#8F7249" offset="0%"></stop>
            <stop stop-color="#CDAE74" offset="31.9863809%"></stop>
            <stop stop-color="#FFE0A7" offset="65.904772%"></stop>
            <stop stop-color="#906F40" offset="100%"></stop>
        </linearGradient>
        <linearGradient x1="77.5058962%" y1="86.0000125%" x2="12.9053656%" y2="15.2695549%" id="linearGradient-2">
            <stop stop-color="#946F3B" offset="0%"></stop>
            <stop stop-color="#FFE0A7" offset="53.1276394%"></stop>
            <stop stop-color="#946F3B" offset="100%"></stop>
        </linearGradient>
        <polygon id="path-3" points="0 0 35 0 35 23.2408508 0 23.2408508"></polygon>
    </defs>
    <g id="casino" stroke="none" stroke-width="1" fill="none" fill-rule="evenodd">
        <g id="casino---VK---egame" transform="translate(-316.000000, -66.000000)">
            <g id="nav" transform="translate(0.000000, 39.000000)">
                <g id="egame" transform="translate(316.000000, 5.240000)">
                    <g id="hover-egame" transform="translate(0.000000, 22.280000)">
                        <path d="M30.95,0.5 C36.9008682,0.5 42.2883682,2.91206591 46.1881511,6.81184887 C50.0879341,10.7116318 52.5,16.0991318 52.5,22.05 L52.5,47.6925 C52.5,48.4677697 52.1857599,49.1696447 51.6777023,49.6777023 C51.1696447,50.1857599 50.4677697,50.5 49.6925,50.5 L22.05,50.5 C16.0991318,50.5 10.7116318,48.0879341 6.81184887,44.1881511 C2.91206591,40.2883682 0.5,34.9008682 0.5,28.95 L0.5,3.3075 C0.5,2.53223028 0.814240141,1.83035528 1.32229771,1.32229771 C1.83035528,0.814240141 2.53223028,0.5 3.3075,0.5 Z" id="Rectangle" stroke="url(#linearGradient-2)" fill="url(#linearGradient-1)"></path>
                        <g id="Group-34" transform="translate(9.000000, 13.720000)">
                            <path d="M13.0289907,11.7441811 C11.6498021,11.7441811 10.5317844,12.8618771 10.5317844,14.2410658 L10.5317844,14.2413874 C10.5317844,15.6202545 11.6498021,16.7382721 13.0289907,16.7382721 C14.4078577,16.7382721 15.5258754,15.6202545 15.5258754,14.2413874 C15.5258754,12.8621988 14.4081794,11.7441811 13.0289907,11.7441811" id="Fill-15" fill="#000000"></path>
                            <path d="M24.4693095,14.2413231 C24.4699525,12.8621344 23.3525781,11.7437951 21.9737111,11.7428299 C20.5945224,11.7421869 19.4761831,12.8595613 19.4752179,14.23875 L19.4752179,14.2413231 C19.4745749,15.6205118 20.5919493,16.7388511 21.9708163,16.7398163 C23.350005,16.7404593 24.4686659,15.6230849 24.4693095,14.2438962 L24.4693095,14.2413231 Z" id="Fill-19" fill="#000000"></path>
                            <g id="Group-25">
                                <mask id="mask-4" fill="white">
                                    <use xlink:href="#path-3"></use>
                                </mask>
                                <g id="Clip-24"></g>
                                <path d="M29.4858185,8.05504441 C28.7566625,8.05504441 28.1654898,7.46387166 28.1654898,6.73471571 C28.1654898,6.00555977 28.7566625,5.41438702 29.4858185,5.41438702 C30.2149744,5.41438702 30.8061472,6.00555977 30.8061472,6.73471571 C30.8061472,7.46387166 30.2149744,8.05504441 29.4858185,8.05504441 L29.4858185,8.05504441 Z M26.9204246,10.6204382 C26.1909471,10.6204382 25.5994527,10.0292655 25.5994527,9.29978791 C25.5994527,8.56998868 26.1909471,7.97881593 26.9204246,7.97881593 C27.6499022,7.97881593 28.241075,8.56998868 28.241075,9.29978791 C28.241075,10.0292655 27.6499022,10.6204382 26.9204246,10.6204382 L26.9204246,10.6204382 Z M24.3547092,8.05504441 C23.6255532,8.05504441 23.0343805,7.46387166 23.0343805,6.73471571 C23.0343805,6.00555977 23.6255532,5.41438702 24.3547092,5.41438702 C25.0841867,5.41438702 25.6753595,6.00555977 25.6753595,6.73471571 C25.6753595,7.46387166 25.0841867,8.05504441 24.3547092,8.05504441 L24.3547092,8.05504441 Z M26.9204246,2.84674171 L26.9213896,2.84674171 C27.6505455,2.84706335 28.2413966,3.43855774 28.2410751,4.16771369 C28.2410751,4.89686963 27.6495806,5.48772074 26.9204246,5.48772074 C26.1909471,5.48772074 25.6000959,4.89654799 25.6000959,4.16707041 C25.6000959,3.43791446 26.1909471,2.84674171 26.9204246,2.84674171 L26.9204246,2.84674171 Z M11.6145826,7.03769979 L11.6145826,7.03898635 C11.6145826,7.49571394 11.2427677,7.86720715 10.7860401,7.86720715 L9.21258142,7.86720715 L9.21258142,9.43905766 C9.21258142,9.89675016 8.84076657,10.2672785 8.38403898,10.2672785 L7.77774919,10.2672785 C7.32005668,10.2672785 6.94920675,9.89642853 6.94920675,9.43905766 L6.94920675,7.86720715 L5.3754264,7.86720715 C4.91805554,7.86720715 4.54688396,7.49635721 4.54688396,7.03898635 L4.54688396,6.43141 C4.54688396,5.97371749 4.91869881,5.6031892 5.3754264,5.6031892 L6.94920675,5.6031892 L6.94920675,4.03037377 C6.94920675,3.57268126 7.32069996,3.20183133 7.77774919,3.20183133 L8.38403898,3.20183133 C8.84173148,3.20183133 9.21258142,3.57364618 9.21258142,4.03037377 L9.21258142,5.6031892 L10.7860401,5.6031892 C11.2427677,5.6031892 11.6145826,5.97468241 11.6145826,6.43141 L11.6145826,7.03769979 Z M33.2534994,5.63342328 L33.2534994,5.63245836 L33.2534994,5.62763377 C32.6410985,1.95869603 29.1706121,-0.519211959 25.5016744,0.0928673367 C24.0851756,0.329272109 22.7815721,1.01211202 21.7806311,2.04200057 L13.2205268,2.04200057 C10.6281153,-0.625352878 6.36414514,-0.686142676 3.6967917,1.90626885 C2.66690315,2.90720987 1.98406324,4.21113497 1.74765847,5.62763377 L1.74765847,5.63245836 L-0.000128655659,18.5498081 C0.00115790093,21.1415764 2.10306972,23.2415584 4.69483797,23.2402718 C6.25736094,23.2396285 7.71728103,22.4612618 8.58827984,21.1640911 L10.4846642,18.0679927 C8.98904221,17.7823771 7.85815897,16.4691245 7.85815897,14.8901979 C7.85815897,13.1041357 9.30457022,11.6564379 11.0899891,11.6532215 C11.087416,11.6551514 11.0851645,11.6577245 11.0825914,11.6596543 C11.624875,11.2502077 12.2974225,11.0044754 13.0288299,11.0038321 C14.7952721,11.0064052 16.2342856,12.4225824 16.265163,14.1883813 L18.7359949,14.1883813 C18.766229,12.4219391 20.2055642,11.0054403 21.972328,11.0028672 C23.4457569,9.99034716 25.4614695,10.3640918 26.4739895,11.8375208 C27.4865095,13.3112713 27.1127648,15.3266622 25.6393359,16.3391823 C25.0999471,16.7100322 24.4608501,16.9084836 23.8063144,16.9084836 L26.4115915,21.1640911 C27.8567162,23.3155354 30.7723751,23.8883747 32.9238193,22.44325 C34.2213116,21.5719295 35,20.1116878 35,18.5488432 L33.2534994,5.63342328 Z" id="Fill-23" fill="#000000" mask="url(#mask-4)"></path>
                            </g>
                        </g>
                    </g>
                </g>
            </g>
        </g>
    </g>
</svg>